<?xml version="1.0" standalone="no"?>
<!DOCTYPE svg PUBLIC "-//W3C//DTD SVG 20010904//EN"
 "http://www.w3.org/TR/2001/REC-SVG-20010904/DTD/svg10.dtd">
<svg version="1.0" xmlns="http://www.w3.org/2000/svg"
 width="247.000000pt" height="219.000000pt" viewBox="0 0 247.000000 219.000000"
 preserveAspectRatio="xMidYMid meet">
<metadata>
Created by potrace 1.16, written by Peter Selinger 2001-2019
</metadata>
<g transform="translate(0.000000,219.000000) scale(0.100000,-0.100000)"
fill="#4c994c" stroke="none">
<path d="M220 2180 c-19 -4 -47 -12 -62 -18 -44 -18 -114 -89 -137 -137 -21
-44 -21 -56 -21 -727 l0 -683 24 -50 c24 -52 72 -101 129 -132 29 -16 72 -18
450 -21 322 -2 418 -6 414 -15 -2 -7 -13 -38 -23 -70 l-18 -57 -165 0 c-142 0
-171 -3 -200 -18 -88 -47 -93 -181 -9 -232 32 -19 49 -20 623 -20 448 0 596 3
614 13 60 30 87 116 56 180 -31 66 -49 71 -245 77 l-175 5 -22 60 c-12 33 -22
63 -22 67 -1 4 187 8 417 10 406 3 418 4 458 25 54 29 107 89 130 149 18 46
19 86 19 714 0 760 4 721 -86 805 -93 87 2 80 -1119 81 -547 1 -1011 -1 -1030
-6z m1960 -885 l0 -615 -955 0 -955 0 0 615 0 615 955 0 955 0 0 -615z"/>
<path d="M543 1782 c-13 -9 -27 -33 -33 -52 -15 -52 -12 -815 3 -860 9 -25 23
-40 50 -53 37 -19 38 -19 135 7 201 53 260 60 527 60 263 0 335 -8 543 -64 82
-23 110 -19 144 17 l23 25 3 426 c3 448 1 467 -42 497 -28 21 -59 19 -178 -10
-174 -42 -296 -56 -498 -56 -202 0 -326 14 -495 56 -117 29 -152 31 -182 7z
m297 -212 c24 -24 26 -77 3 -102 -24 -27 -87 -24 -107 4 -51 73 42 160 104 98z
m516 -58 c25 -16 304 -437 304 -458 0 -21 -23 -54 -38 -54 -4 0 -50 7 -102 15
-131 20 -470 20 -596 0 -87 -14 -98 -14 -120 0 -13 8 -24 25 -24 36 0 19 97
154 158 222 38 40 73 36 112 -13 17 -22 35 -40 40 -40 4 0 48 59 96 130 48 72
96 139 106 150 19 21 44 25 64 12z"/>
</g>
</svg>
