<?xml version="1.0" standalone="no"?>
<!DOCTYPE svg PUBLIC "-//W3C//DTD SVG 20010904//EN"
 "http://www.w3.org/TR/2001/REC-SVG-20010904/DTD/svg10.dtd">
<svg version="1.0" xmlns="http://www.w3.org/2000/svg"
 width="328.000000pt" height="120.000000pt" viewBox="0 0 328.000000 120.000000"
 preserveAspectRatio="xMidYMid meet">
<metadata>
Created by potrace 1.16, written by Peter Selinger 2001-2019
</metadata>
<g transform="translate(0.000000,120.000000) scale(0.100000,-0.100000)"
fill="#000" stroke="none">
<path d="M105 1190 c-42 -13 -85 -60 -96 -106 -4 -22 -9 -198 -9 -393 0 -484
-20 -455 328 -466 127 -4 232 -8 232 -10 0 -1 -5 -16 -11 -33 l-10 -30 -101
-4 c-91 -3 -102 -5 -119 -27 -26 -32 -24 -67 6 -96 l24 -25 326 0 326 0 24 25
c44 43 28 98 -33 115 -20 5 -69 10 -109 10 -71 0 -71 0 -82 31 -6 18 -11 33
-11 34 0 2 107 6 237 10 l238 8 36 36 c32 32 38 45 44 101 4 36 5 214 3 397
-3 316 -4 333 -24 359 -11 15 -33 37 -48 48 -27 21 -39 21 -584 23 -312 1
-570 -2 -587 -7z m1095 -480 l0 -340 -525 0 -525 0 0 340 0 340 525 0 525 0 0
-340z"/>
<path d="M301 971 c-20 -20 -21 -32 -21 -256 0 -222 1 -236 20 -255 25 -25 19
-25 127 1 78 19 109 20 278 16 137 -3 207 -9 249 -22 76 -21 101 -12 109 42 9
50 9 367 1 427 -9 66 -22 70 -141 44 -166 -36 -422 -28 -585 18 -9 3 -26 -4
-37 -15z m164 -136 c0 -27 -3 -30 -30 -30 -21 0 -31 5 -33 18 -5 25 17 49 42
45 16 -2 21 -10 21 -33z m364 -125 c78 -117 91 -143 72 -154 -4 -3 -59 -1
-120 4 -75 7 -148 7 -219 0 -90 -8 -109 -8 -121 5 -13 13 -9 21 30 71 61 78
72 84 104 54 16 -15 29 -21 33 -14 87 128 109 154 128 154 7 0 49 -54 93 -120z"/>
<path d="M2350 510 l0 -380 45 0 45 0 0 98 c0 95 1 99 29 126 l28 27 94 -126
94 -125 75 -2 c258 -4 252 -4 300 22 56 31 83 79 77 137 -7 64 -29 88 -114
128 -130 60 -166 79 -176 96 -15 24 0 64 28 77 35 16 122 15 177 -2 l46 -13
16 34 c16 33 15 34 -8 43 -58 22 -147 31 -202 21 -104 -20 -144 -60 -144 -148
0 -39 5 -50 34 -77 18 -18 74 -49 123 -69 109 -45 133 -66 133 -112 0 -26 -6
-39 -26 -52 -47 -31 -159 -26 -246 11 -13 6 -17 1 -20 -20 -3 -26 -11 -18 -94
91 -50 66 -94 126 -98 133 -5 9 27 49 101 125 l108 112 -50 3 c-47 3 -52 1
-84 -35 -19 -21 -73 -79 -120 -130 l-86 -91 3 239 4 239 -46 0 -46 0 0 -380z"/>
<path d="M2200 850 c-22 -22 -25 -42 -10 -71 12 -22 59 -26 78 -7 20 20 15 76
-7 88 -28 14 -38 13 -61 -10z"/>
<path d="M3188 859 c-21 -12 -24 -69 -6 -87 7 -7 24 -12 40 -12 48 0 66 66 26
94 -26 18 -36 19 -60 5z"/>
<path d="M1690 485 l0 -355 45 0 45 0 0 139 0 138 103 5 c116 5 163 23 215 82
78 89 64 242 -27 303 -52 35 -95 43 -243 43 l-138 0 0 -355z m298 261 c46 -24
66 -60 66 -120 0 -98 -55 -136 -194 -136 l-80 0 0 141 0 142 88 -5 c53 -3 100
-12 120 -22z"/>
<path d="M2190 401 l0 -271 45 0 45 0 -2 268 -3 267 -42 3 -43 3 0 -270z"/>
<path d="M3177 663 c-4 -3 -7 -125 -7 -270 l0 -263 45 0 45 0 0 270 0 270 -38
0 c-21 0 -42 -3 -45 -7z"/>
</g>
</svg>
